HIERARCHY
ROOT root
{
	OFFSET	0	13.1	24.9
	CHANNELS 6  Xposition Yposition Zposition Xrotation Yrotation Zrotation
	JOINT spine_1
	{
		OFFSET	0	9.99999	0
		CHANNELS 3  Xrotation Yrotation Zrotation
		JOINT spine_2
		{
			OFFSET	0	112	-10
			CHANNELS 3  Xrotation Yrotation Zrotation
			JOINT spine_3
			{
				OFFSET	0	206.5	19.3
				CHANNELS 3  Xrotation Yrotation Zrotation
				JOINT spine_4
				{
					OFFSET	0	110.4	14.6
					CHANNELS 3  Xrotation Yrotation Zrotation
					JOINT neck_1
					{
						OFFSET	0	71.8	-50.3
						CHANNELS 3  Xrotation Yrotation Zrotation
						JOINT neck_2
						{
							OFFSET	0	86.2	-25.8
							CHANNELS 3  Xrotation Yrotation Zrotation
							JOINT head_ee
							{
								OFFSET	0	179.8	-8.7
								CHANNELS 3  Xrotation Yrotation Zrotation
								End Site
								{
									OFFSET	1	0	0
								}
							}
						}
					}
					JOINT left_clavicle
					{
						OFFSET	-43.2	22.4	-70.8
						CHANNELS 3  Xrotation Yrotation Zrotation
						JOINT left_shoulder
						{
							OFFSET	-93.9	-5.79999	48.7
							CHANNELS 3  Xrotation Yrotation Zrotation
							JOINT left_elbow
							{
								OFFSET	-291.4	-30.8	15.2
								CHANNELS 3  Xrotation Yrotation Zrotation
								JOINT left_lowarm_twist
								{
									OFFSET	-110.7	-3.89999	13.6
									CHANNELS 3  Xrotation Yrotation Zrotation
									JOINT left_hand
									{
										OFFSET	-110.7	-3.89999	13.6
										CHANNELS 3  Xrotation Yrotation Zrotation
										JOINT left_ee
										{
											OFFSET	-80.8	-5.10001	12.1
											CHANNELS 3  Xrotation Yrotation Zrotation
											End Site
											{
												OFFSET	1	0	0
											}
										}
									}
								}
							}
						}
					}
					JOINT right_clavicle
					{
						OFFSET	43.2	22.4	-70.8
						CHANNELS 3  Xrotation Yrotation Zrotation
						JOINT right_shoulder
						{
							OFFSET	93.9	-5.79999	48.7
							CHANNELS 3  Xrotation Yrotation Zrotation
							JOINT right_elbow
							{
								OFFSET	291.4	-30.8	15.2
								CHANNELS 3  Xrotation Yrotation Zrotation
								JOINT right_lowarm_twist
								{
									OFFSET	110.7	-3.89999	13.6
									CHANNELS 3  Xrotation Yrotation Zrotation
									JOINT right_hand
									{
										OFFSET	110.7	-3.89999	13.6
										CHANNELS 3  Xrotation Yrotation Zrotation
										JOINT right_ee
										{
											OFFSET	80.8	-5.10001	12.1
											CHANNELS 3  Xrotation Yrotation Zrotation
											End Site
											{
												OFFSET	1	0	0
											}
										}
									}
								}
							}
						}
					}
				}
			}
		}
	}
	JOINT left_hip
	{
		OFFSET	-82.8	-127.5	0.300001
		CHANNELS 3  Xrotation Yrotation Zrotation
		JOINT left_knee
		{
			OFFSET	-28.2	-396.7	2.2
			CHANNELS 3  Xrotation Yrotation Zrotation
			JOINT left_ankle
			{
				OFFSET	-11.7	-411.3	35.4
				CHANNELS 3  Xrotation Yrotation Zrotation
				JOINT left_toes
				{
					OFFSET	0	-60	-88.6
					CHANNELS 3  Xrotation Yrotation Zrotation
					JOINT left_foot_ee
					{
						OFFSET	-22.5	-16.5	-42.2
						CHANNELS 3  Xrotation Yrotation Zrotation
						End Site
						{
							OFFSET	1	0	0
						}
					}
				}
			}
		}
	}
	JOINT right_hip
	{
		OFFSET	82.8	-127.5	0.300001
		CHANNELS 3  Xrotation Yrotation Zrotation
		JOINT right_knee
		{
			OFFSET	28.2	-396.7	2.2
			CHANNELS 3  Xrotation Yrotation Zrotation
			JOINT right_ankle
			{
				OFFSET	11.7	-411.3	35.4
				CHANNELS 3  Xrotation Yrotation Zrotation
				JOINT right_toes
				{
					OFFSET	0	-60	-88.6
					CHANNELS 3  Xrotation Yrotation Zrotation
					JOINT right_foot_ee
					{
						OFFSET	22.5	-16.5	-42.2
						CHANNELS 3  Xrotation Yrotation Zrotation
						End Site
						{
							OFFSET	1	0	0
						}
					}
				}
			}
		}
	}
}
MOTION
Frames: 12
Frame Time: 0.02
2183.7 692.335 -759.776 -166.9 -56.6785 -170.123 2.41683 -0.157113 -0.287789 2.41687 -0.138482 -0.297203 2.41759 -0.0863452 -0.316309 2.41748 -0.135216 -0.298703 -10.627 9.83074 -3.19701 -10.7618 20.6714 -0.511168 -0.0 0.0 -0.0 10.3443 -1.57087 20.4453 -12.5785 -38.7639 43.2235 1.74257 -40.7978 0.648061 -48.5584 -3.90381 4.60539 -8.13866 11.3222 -56.7567 -0.0 0.0 -0.0 7.86014 -10.6531 -14.8858 -29.1449 20.4143 -60.9817 0.526799 14.626 -0.0676063 40.8867 0.396184 5.09871 -2.72146 -14.503 11.0565 0.0 0.0 0.0 3.23392 14.384 5.11418 -18.1279 0.313222 2.75266 39.8903 16.8337 -4.95308 -13.8786 0.0 0.0 -0.0 0.0 -0.0 35.5889 24.1629 -5.36709 -3.14693 -0.116718 -0.46879 -7.72268 2.63607 -1.17015 -0.368387 0.0 0.0 0.0 0.0 0.0 
2205.88 689.434 -747.375 -167.616 -56.8851 -170.809 2.63399 -0.242124 -0.147128 2.63397 -0.232271 -0.162237 2.63464 -0.202317 -0.19834 2.63466 -0.231102 -0.163898 -10.0352 9.3681 -3.6286 -10.1217 20.0784 -1.16751 -0.0 0.0 -0.0 9.69157 -0.223569 19.0293 -14.0226 -38.3782 46.7441 1.63075 -38.9292 0.576381 -46.915 -3.71475 4.51191 -7.9113 11.5883 -53.7194 -0.0 0.0 -0.0 8.11466 -10.5311 -15.3514 -30.0685 20.3408 -60.8071 0.557617 15.4418 -0.0756004 41.4449 0.426543 5.16333 -2.77524 -14.2234 11.5468 0.0 0.0 0.0 2.13606 14.3948 4.93715 -19.7469 0.298565 3.00063 39.7124 16.5259 -4.93145 -13.4405 0.0 0.0 -0.0 0.0 -0.0 34.6835 24.0759 -5.35178 -4.54239 -0.160191 -0.678534 -7.61033 2.72474 -1.15327 -0.0211993 0.0 0.0 0.0 0.0 0.0 
2233.6 691.076 -738.178 -168.619 -56.1411 -171.892 2.61204 -0.0986066 -0.103719 2.61204 -0.0918069 -0.109783 2.61222 -0.0723844 -0.123456 2.61221 -0.0909735 -0.110475 -8.1486 9.79725 -4.33444 -8.13053 21.3404 -2.12201 -0.0 0.0 -0.0 9.93836 1.02858 19.4753 -14.902 -37.2718 48.4292 1.50027 -36.617 0.496441 -46.6994 -3.69014 4.49924 -7.20035 9.67636 -48.1946 -0.0 0.0 -0.0 8.27854 -10.8806 -15.621 -29.8039 20.6167 -60.4779 0.629613 17.3224 -0.0959087 41.6206 0.436232 5.18362 -3.01856 -14.9833 12.6877 0.0 0.0 0.0 1.05763 13.6444 5.7489 -20.3696 0.291061 3.09589 39.0744 17.7936 -4.89585 -12.9056 0.0 0.0 -0.0 0.0 -0.0 34.4294 23.5847 -5.54028 -8.29576 -0.251632 -1.24717 -3.87073 5.58011 -0.589071 1.40325 -0.0 -0.0 0.0 0.0 0.0 
2257.03 694.606 -728.129 -168.626 -55.656 -172.185 2.62339 0.085091 0.0271893 2.62339 0.0831884 0.0325488 2.62344 0.0766681 0.0458448 2.62344 0.0829462 0.0331611 -8.45513 10.1046 -3.80722 -8.47028 21.5535 -1.46556 -0.0 0.0 -0.0 9.23512 2.70281 17.9656 -15.5223 -36.89 51.4763 1.50563 -36.7149 0.499641 -46.6303 -3.68227 4.49516 -7.13952 9.61308 -47.6486 -0.0 0.0 -0.0 8.34718 -11.1163 -15.7262 -29.9524 21.0666 -60.2111 0.708994 19.3521 -0.120887 42.0219 0.458587 5.22983 -3.26586 -15.5482 13.951 0.0 0.0 0.0 0.439231 13.1195 6.11868 -20.8258 0.284908 3.16561 35.1052 18.3946 -4.52077 -12.8683 0.0 0.0 -0.0 0.0 -0.0 33.9426 22.6209 -5.82878 -10.7348 -0.291005 -1.61933 -3.19778 3.16809 -0.481288 3.44762 -0.0 -0.0 0.0 0.0 0.0 
2283.07 700.563 -712.85 -169.467 -55.338 -173.46 2.5465 0.17276 0.307668 2.54654 0.152832 0.318037 2.54739 0.0977421 0.339045 2.54726 0.150061 0.319354 -9.33782 10.4089 -3.92816 -9.40668 22.226 -1.33102 -0.0 0.0 -0.0 9.5018 3.50392 18.4513 -19.6132 -34.5245 51.4776 1.39452 -34.635 0.434833 -45.7083 -3.57766 4.43983 -7.06481 10.8199 -45.7589 -0.0 0.0 -0.0 8.5536 -10.9179 -16.1135 -28.9225 21.213 -60.5907 0.729711 19.8738 -0.127841 42.0154 0.458221 5.22908 -3.32606 -15.1812 14.544 0.0 0.0 0.0 1.11017 12.7561 6.13404 -21.6622 0.272184 3.29333 32.4336 19.122 -4.25519 -13.1852 0.0 0.0 -0.0 0.0 -0.0 33.1723 22.6917 -5.46059 -13.8543 -0.318218 -2.09714 0.171171 1.80987 0.0254429 3.09478 -0.0 -0.0 0.0 0.0 0.0 
2297.61 704.068 -701.159 -170.098 -54.7132 -174.402 2.50774 0.184551 0.359485 2.5078 0.161302 0.370499 2.50884 0.0970955 0.39225 2.50866 0.157825 0.371994 -9.38104 10.9589 -5.19337 -9.43673 24.1182 -2.42944 -0.0 0.0 -0.0 9.63849 2.63309 18.7767 -22.8749 -33.9956 51.792 1.12116 -29.0465 0.290446 -44.1771 -3.40595 4.34426 -6.66892 9.30354 -43.4505 -0.0 0.0 -0.0 8.43422 -9.99404 -15.9693 -27.7412 21.6514 -61.3266 0.755434 20.5168 -0.136721 42.8012 0.502923 5.31911 -3.34303 -16.0179 14.1766 0.0 0.0 0.0 1.5391 12.6543 6.48408 -23.0994 0.245971 3.5123 32.4294 19.2118 -4.25631 -13.0707 0.0 0.0 -0.0 0.0 -0.0 32.339 21.4726 -5.16291 -15.3784 -0.322047 -2.33094 0.741779 2.61723 0.110387 3.38468 -0.0 -0.0 0.0 0.0 0.0 
2310.94 709.592 -693.676 -170.137 -53.4256 -174.878 2.50547 0.323644 0.523145 2.50557 0.2897 0.542679 2.50833 0.194905 0.58347 2.50796 0.284606 0.545368 -9.63382 10.8188 -6.07694 -9.67898 24.4523 -3.27884 -0.0 0.0 -0.0 8.89875 2.19849 17.3189 -22.8405 -33.8286 55.2854 0.945943 -25.107 0.210642 -42.1408 -3.18166 4.21014 -6.52613 9.95514 -41.6012 -0.0 0.0 -0.0 8.97718 -7.23483 -17.182 -25.354 22.0771 -61.1805 0.710114 19.3803 -0.121258 43.5162 0.544674 5.40051 -3.56714 -16.9183 15.0812 0.0 0.0 0.0 4.52223 12.2191 5.98893 -27.3328 0.136948 4.15269 29.7247 21.7449 -4.00481 -13.3336 0.0 0.0 -0.0 0.0 -0.0 31.2276 22.3855 -5.073 -15.2099 -0.321929 -2.30509 2.58086 1.7801 0.38113 3.54549 -0.0 -0.0 0.0 0.0 0.0 
2330.29 717.794 -684.081 -171.807 -51.1856 -176.689 2.26918 0.241768 0.629457 2.26937 0.201225 0.643565 2.27164 0.0880441 0.668517 2.27107 0.192517 0.646223 -10.5614 11.4696 -4.40638 -10.7364 24.5598 -1.24699 -0.0 0.0 -0.0 8.81664 0.46211 17.2196 -26.3783 -31.3453 57.9045 0.684554 -18.7323 0.112913 -40.2325 -2.97592 4.07731 -6.39495 10.867 -39.6876 -0.0 0.0 -0.0 9.48237 -4.8082 -18.3282 -22.7925 23.8907 -61.3301 0.696314 19.0311 -0.116719 44.3194 0.592787 5.49133 -3.6734 -17.3366 15.5086 0.0 0.0 0.0 7.90224 12.2619 4.88818 -33.0734 -0.0858727 5.00512 25.774 23.8746 -3.58104 -14.0745 0.0 0.0 -0.0 0.0 -0.0 29.4433 20.5309 -4.7116 -16.13 -0.321645 -2.44626 2.20413 4.39047 0.328844 2.77654 -0.0 -0.0 0.0 0.0 0.0 
2348.72 719.076 -671.622 -171.447 -50.5348 -176.539 2.26909 0.370552 0.653143 2.26927 0.328241 0.675397 2.27317 0.207762 0.72162 2.27258 0.319118 0.679754 -10.1489 11.7091 -4.52762 -10.2995 25.0864 -1.39693 -0.0 0.0 -0.0 8.62582 1.40241 16.8048 -27.1569 -30.2631 60.692 0.535782 -14.8644 0.0698925 -38.3585 -2.7783 3.94029 -5.55943 10.0757 -33.4851 -0.0 0.0 -0.0 10.5333 -2.44057 -20.6018 -19.3522 23.3326 -61.8302 0.656128 18.0056 -0.103955 44.7373 0.618324 5.53831 -3.76646 -16.2176 16.7737 0.0 0.0 0.0 11.0413 8.7244 4.98041 -36.9102 -0.281988 5.56086 24.519 26.337 -3.47596 -13.3798 0.0 0.0 -0.0 0.0 -0.0 27.9803 19.3473 -4.24381 -16.1374 -0.321633 -2.4474 4.90517 4.6739 0.726827 1.50824 -0.0 -0.0 0.0 0.0 0.0 
2360.57 719.587 -667.923 -171.962 -49.9826 -177.391 2.11596 0.232866 0.820128 2.11632 0.180209 0.833282 2.11894 0.032578 0.851922 2.11797 0.16671 0.836087 -10.4133 12.0514 -3.73867 -10.6094 25.2125 -0.469107 -0.0 0.0 -0.0 8.04511 -2.82245 15.707 -27.471 -30.1132 65.0847 0.405236 -11.351 0.0402732 -36.3339 -2.56998 3.78512 -4.79858 9.06756 -28.3879 -0.0 0.0 -0.0 9.91473 2.79713 -19.5877 -15.0267 24.4815 -65.1395 0.645429 17.7306 -0.100672 45.3714 0.657721 5.60924 -3.55495 -15.6911 15.7221 0.0 0.0 0.0 14.7328 8.02906 4.50933 -42.2293 -0.61465 6.3075 22.3277 27.2229 -3.21409 -13.7814 0.0 0.0 -0.0 0.0 -0.0 27.0793 15.2311 -3.14652 -16.6315 -0.320535 -2.52319 4.32847 7.06118 0.649263 -0.195455 0.0 0.0 0.0 0.0 0.0 
2376.4 721.037 -661.823 -172.406 -49.2721 -177.766 2.02886 0.151923 0.989304 2.0294 0.0886662 0.996966 2.03093 -0.0875772 0.997062 2.02955 0.0709811 0.99838 -11.7113 11.1975 -5.01772 -11.9497 24.4443 -1.6504 -0.0 0.0 -0.0 8.30404 0.843515 16.178 -30.2053 -29.4361 64.3167 0.352028 -9.89222 0.0304649 -34.4264 -2.37885 3.63231 -3.4804 7.98104 -19.63 -0.0 0.0 -0.0 9.41097 4.12876 -18.5578 -7.41027 24.5839 -67.2769 0.701434 19.1608 -0.118393 45.8585 0.688523 5.66344 -3.72141 -15.9896 16.6193 0.0 0.0 0.0 16.8358 5.63497 5.11734 -46.0351 -0.894648 6.82157 19.4866 27.5678 -2.84468 -14.1649 0.0 0.0 -0.0 0.0 -0.0 26.5948 13.6512 -3.19393 -17.8566 -0.314993 -2.71108 6.94063 7.54457 1.0347 -0.0198438 0.0 0.0 0.0 0.0 0.0 
2391.5 725.53 -654.212 -173.377 -48.8133 -178.61 1.96354 0.188804 1.19406 1.96432 0.112446 1.20365 1.96668 -0.101771 1.2046 1.96466 0.089736 1.20556 -12.0674 11.0674 -4.12337 -12.3339 23.6245 -0.746761 -0.0 0.0 -0.0 8.18012 0.808214 15.9312 -32.6547 -28.3482 64.2972 0.360103 -10.1145 0.0318677 -32.9441 -2.23391 3.50924 -2.58269 7.6145 -13.7249 -0.0 0.0 -0.0 9.35792 6.21005 -18.4647 -2.93035 24.5005 -67.1348 0.721551 19.6687 -0.12508 46.6966 0.742597 5.75608 -3.6851 -16.916 15.8338 0.0 0.0 0.0 20.6794 8.07903 3.43447 -50.2572 -1.24465 7.36911 18.5422 27.2281 -2.71105 -14.1966 0.0 0.0 -0.0 0.0 -0.0 24.9365 12.0227 -2.5761 -18.039 -0.313824 -2.73905 6.7526 8.19543 1.01058 -0.394269 0.0 0.0 0.0 0.0 0.0 
